<svg xmlns="http://www.w3.org/2000/svg" xmlns:xlink="http://www.w3.org/1999/xlink" viewBox="0 0 439.78 219.6"><defs><style>.cls-1{fill:url(#Naamloos_verloop_2);}.cls-2{fill:#072508;}.cls-3{fill:#fff;}.cls-4{fill:url(#Naamloos_verloop_2-2);}.cls-5,.cls-7{font-size:86.96px;fill:#fcfcfc;font-family:MyriadPro-Bold, Myriad Pro;font-weight:700;}.cls-5{letter-spacing:0em;}.cls-6{letter-spacing:0em;}.cls-8{font-size:99.19px;fill:#154f3c;font-family:HighTowerText-Reg, High Tower Text;}</style><linearGradient id="Naamloos_verloop_2" x1="109.66" y1="221.25" x2="218.74" y2="112.17" gradientTransform="matrix(1, 0, 0, -1, 0, 222)" gradientUnits="userSpaceOnUse"><stop offset="0" stop-color="#15453d"/><stop offset="1" stop-color="#006c24"/></linearGradient><linearGradient id="Naamloos_verloop_2-2" x1="109.83" y1="3.15" x2="0.75" y2="112.23" xlink:href="#Naamloos_verloop_2"/></defs><title>Middel 1</title><g id="Laag_2" data-name="Laag 2"><g id="Laag_1-2" data-name="Laag 1"><rect class="cls-1" x="109.66" y="0.75" width="109.07" height="109.07"/><path class="cls-2" d="M108.91,110.58V0H219.49V110.58Zm109.83-.75v0Zm-108.33-.75H218V1.5H110.41V109.08Z"/><path class="cls-3" d="M195.19,15.78h.89c.91,0,1.62-.42,1.62-1.39a1.52,1.52,0,0,0-1.64-1.67c-1.26,0-1.66,1.09-1.75,2.13l-2.42-.51a4,4,0,0,1,4.35-3.66c2,0,3.91,1.07,3.91,3.31a2.44,2.44,0,0,1-2.05,2.61v0a2.9,2.9,0,0,1,2.36,3.06c0,2.57-2.12,3.81-4.49,3.81s-4.3-1.13-4.3-4.26H194a2,2,0,0,0,2,2.22,1.76,1.76,0,0,0,1.86-1.91,1.65,1.65,0,0,0-1.82-1.84h-.89V15.78Z"/><path class="cls-3" d="M203,10.9H210l-.24,2.15h-4.79l-.38,2.59a3.28,3.28,0,0,1,2.22-.88c2.64,0,3.9,2,3.9,4.25a4.31,4.31,0,0,1-4.61,4.5c-2.32,0-4.21-1.15-4.32-3.64l2.55-.2a1.8,1.8,0,0,0,1.79,1.91c1.49,0,2-1.26,2-2.55,0-1.64-.84-2.34-2.08-2.34a1.75,1.75,0,0,0-1.77,1.19l-2.11-.16Z"/><rect class="cls-4" x="0.75" y="109.77" width="109.08" height="109.08"/><path class="cls-2" d="M0,219.6V109H110.58V219.59H0Zm109.83-.75v0ZM1.5,218.1H109.08V110.52H1.5V218.1Z"/><path class="cls-3" d="M83.62,119.2h6.93l-.24,2.15h-4.8l-.38,2.59a3.31,3.31,0,0,1,2.23-.88c2.64,0,3.9,2,3.9,4.25a4.31,4.31,0,0,1-4.62,4.5c-2.31,0-4.21-1.15-4.32-3.64l2.56-.2a1.8,1.8,0,0,0,1.78,1.91c1.5,0,2-1.26,2-2.55,0-1.64-.84-2.34-2.08-2.34a1.74,1.74,0,0,0-1.77,1.19L82.74,126Z"/><path class="cls-3" d="M98.74,122.44A1.43,1.43,0,0,0,97.26,121c-1.77,0-2.17,2.31-2.17,3.77h0a2.78,2.78,0,0,1,2.42-1.14c2.32,0,3.67,1.65,3.67,4.08a4,4,0,0,1-4.14,4.08c-3.61,0-4.44-3.22-4.44-6.1,0-3.92,1.54-6.73,4.64-6.73a3.52,3.52,0,0,1,3.81,3.15Zm-3.47,5.29c0,1.27.64,2,1.81,2s1.8-.77,1.8-2-.64-2-1.8-2S95.27,126.45,95.27,127.73Z"/><text class="cls-5" transform="translate(117 85.51)">D<tspan class="cls-6" x="60.87" y="0">r</tspan></text><text class="cls-7" transform="translate(1.5 192.67)">Da</text><text class="cls-8" transform="translate(222.33 85.51) rotate(0.1)">ugs</text><text class="cls-8" transform="translate(113.58 192.67) rotate(0.1)">shboard</text></g></g></svg>